<svg width="36" height="38" viewBox="0 0 36 38" fill="none" xmlns="http://www.w3.org/2000/svg">
<path d="M9.39901 19.1527C6.38424 19.1527 4.4335 20.2168 3.5468 22.8768V19.6847C3.5468 10.1084 6.56158 1.24137 13.6552 1.24137V0C3.19212 0 0 9.22167 0 23.5862V25.3596C0 31.7438 1.7734 37.4187 8.15764 37.4187C13.8325 37.4187 15.6059 32.8079 15.6059 27.8424C15.6059 22.8768 13.8325 19.1527 9.39901 19.1527ZM29.7931 19.1527C26.7783 19.1527 24.8276 20.2168 23.9409 22.8768V19.6847C23.9409 10.1084 26.9557 1.24137 34.0493 1.24137V0C23.5862 0 20.3941 9.22167 20.3941 23.5862V25.3596C20.3941 31.7438 22.1675 37.4187 28.5517 37.4187C34.2266 37.4187 36 32.8079 36 27.8424C36 22.8768 34.2266 19.1527 29.7931 19.1527Z" fill="#1A1A1A"/>
</svg>
