<svg width="514" height="514" viewBox="0 0 514 514" fill="none" xmlns="http://www.w3.org/2000/svg">
<path fill-rule="evenodd" clip-rule="evenodd" d="M279.352 162.589L339.697 13.2284L366.849 24.199L304.904 177.525L311.441 181.852L428.373 64.9194L449.079 85.6273L337.123 197.584L341.552 204.078L486.641 140.688L498.365 167.524L344.632 234.692L346.233 242.357H514V271.643H346.236L344.634 279.309L498.365 346.475L486.641 373.312L341.552 309.922L337.123 316.416L449.079 428.373L428.373 449.079L311.441 332.148L304.904 336.475L366.849 489.802L339.697 500.771L279.352 351.411L271.643 352.91V514H242.357V352.91L234.648 351.411L174.303 500.771L147.15 489.802L209.097 336.475L202.56 332.148L85.6276 449.079L64.9197 428.373L176.876 316.416L172.446 309.922L27.3589 373.312L15.6339 346.475L169.367 279.309L167.765 271.643H0V242.357H167.765L169.367 234.692L15.6339 167.524L27.3589 140.688L172.447 204.078L176.877 197.584L64.9196 85.6276L85.6277 64.9194L202.56 181.852L209.097 177.525L147.149 24.199L174.303 13.2284L234.648 162.589L242.357 161.091V0H271.643V161.091L279.352 162.589Z" fill="#FBF5DC"/>
</svg>
